<svg width="14" height="14" viewBox="0 0 14 14" fill="none" xmlns="http://www.w3.org/2000/svg">
<g id="Iconly/Light-Outline/Location">
<g id="Location">
<path id="Fill 1" fill-rule="evenodd" clip-rule="evenodd" d="M7.14608 4.95837C6.58316 4.95837 6.12524 5.41629 6.12524 5.97979C6.12524 6.54271 6.58316 7.00004 7.14608 7.00004C7.70899 7.00004 8.16691 6.54271 8.16691 5.97979C8.16691 5.41629 7.70899 4.95837 7.14608 4.95837ZM7.14608 7.87504C6.10074 7.87504 5.25024 7.02512 5.25024 5.97979C5.25024 4.93387 6.10074 4.08337 7.14608 4.08337C8.19141 4.08337 9.04191 4.93387 9.04191 5.97979C9.04191 7.02512 8.19141 7.87504 7.14608 7.87504Z" fill="#324A59" fill-opacity="0.8"/>
<g id="Group 5">
<mask id="mask0_2_1344" style="mask-type:luminance" maskUnits="userSpaceOnUse" x="2" y="1" width="10" height="12">
<path id="Clip 4" fill-rule="evenodd" clip-rule="evenodd" d="M2.33325 1.16669H11.958V12.5417H2.33325V1.16669Z" fill="white"/>
</mask>
<g mask="url(#mask0_2_1344)">
<path id="Fill 3" fill-rule="evenodd" clip-rule="evenodd" d="M7.14551 2.04169C4.97434 2.04169 3.20801 3.82494 3.20801 6.01594C3.20801 8.80369 6.48867 11.5197 7.14551 11.6644C7.80234 11.5191 11.083 8.8031 11.083 6.01594C11.083 3.82494 9.31667 2.04169 7.14551 2.04169ZM7.14551 12.5417C6.09901 12.5417 2.33301 9.30302 2.33301 6.01594C2.33301 3.34194 4.49192 1.16669 7.14551 1.16669C9.79909 1.16669 11.958 3.34194 11.958 6.01594C11.958 9.30302 8.19201 12.5417 7.14551 12.5417Z" fill="#324A59" fill-opacity="0.8"/>
</g>
</g>
</g>
</g>
</svg>
