<svg width="36" height="45" viewBox="0 0 36 45" fill="none" xmlns="http://www.w3.org/2000/svg">
<path fill-rule="evenodd" clip-rule="evenodd" d="M18 0C8.06347 0.0112189 0.011087 8.15941 0 18.2142C0 28.0294 16.5664 44.0354 17.2715 44.7061C17.68 45.098 18.32 45.098 18.7285 44.7061C19.4336 44.0354 36 28.0294 36 18.2142C35.9889 8.15941 27.9365 0.0112189 18 0Z" fill="#324A59"/>
<mask id="mask0_2_2761" style="mask-type:luminance" maskUnits="userSpaceOnUse" x="9" y="8" width="18" height="19">
<path fill-rule="evenodd" clip-rule="evenodd" d="M9.66666 8.8335H26.7498V26.7543H9.66666V8.8335Z" fill="white"/>
</mask>
<g mask="url(#mask0_2_2761)">
<path fill-rule="evenodd" clip-rule="evenodd" d="M19.4307 20.7427C20.434 20.7427 21.2507 21.5536 21.2507 22.5502V25.1136C21.2507 25.3277 21.4223 25.4994 21.6423 25.5044H23.2307C24.4823 25.5044 25.4998 24.4994 25.4998 23.2644V15.9944C25.494 15.5694 25.2915 15.1694 24.944 14.9036L19.4498 10.5219C18.7123 9.93775 17.6807 9.93775 16.9407 10.5236L11.484 14.9019C11.1232 15.1761 10.9207 15.5761 10.9165 16.0086V23.2644C10.9165 24.4994 11.934 25.5044 13.1857 25.5044H14.789C15.0148 25.5044 15.1982 25.3252 15.1982 25.1052C15.1982 25.0569 15.204 25.0086 15.214 24.9627V22.5502C15.214 21.5594 16.0257 20.7494 17.0215 20.7427H19.4307ZM23.2307 26.7544H21.6273C20.709 26.7327 20.0007 26.0119 20.0007 25.1136V22.5503C20.0007 22.2428 19.7448 21.9928 19.4307 21.9928H17.0257C16.7182 21.9944 16.464 22.2453 16.464 22.5503V25.1053C16.464 25.1678 16.4557 25.2278 16.4382 25.2844C16.3482 26.1094 15.6432 26.7544 14.789 26.7544H13.1857C11.2448 26.7544 9.6665 25.1886 9.6665 23.2644V16.0027C9.67484 15.1744 10.0565 14.4161 10.7157 13.9169L16.1615 9.54608C17.3607 8.59608 19.0315 8.59608 20.2282 9.54442L25.7132 13.9194C26.3573 14.4102 26.739 15.1669 26.7498 15.9852V23.2644C26.7498 25.1886 25.1715 26.7544 23.2307 26.7544Z" fill="white"/>
</g>
</svg>
