<svg width="9" height="44" viewBox="0 0 9 44" fill="none" xmlns="http://www.w3.org/2000/svg">
<path d="M9 22C9 21.7925 8.91699 21.6016 8.75928 21.4521L2.18506 15.0107C2.03564 14.8696 1.85303 14.7949 1.63721 14.7949C1.21387 14.7949 0.881836 15.1187 0.881836 15.5503C0.881836 15.7578 0.964844 15.9487 1.09766 16.0898L7.14062 22L1.09766 27.9102C0.964844 28.0513 0.881836 28.2339 0.881836 28.4497C0.881836 28.8813 1.21387 29.2051 1.63721 29.2051C1.85303 29.2051 2.03564 29.1304 2.18506 28.981L8.75928 22.5479C8.91699 22.3901 9 22.2075 9 22Z" fill="#3C3C43" fill-opacity="0.3"/>
</svg>
