<svg width="36" height="45" viewBox="0 0 36 45" fill="none" xmlns="http://www.w3.org/2000/svg">
<path fill-rule="evenodd" clip-rule="evenodd" d="M18 0C8.06347 0.0112189 0.011087 8.15941 0 18.2142C0 28.0294 16.5664 44.0354 17.2715 44.7061C17.68 45.098 18.32 45.098 18.7285 44.7061C19.4336 44.0354 36 28.0294 36 18.2142C35.9889 8.15941 27.9365 0.0112189 18 0Z" fill="#324A59"/>
<mask id="mask0_2_2763" style="mask-type:luminance" maskUnits="userSpaceOnUse" x="10" y="21" width="16" height="8">
<path fill-rule="evenodd" clip-rule="evenodd" d="M10.6667 21.2881H25.1866V28.0476H10.6667V21.2881Z" fill="white"/>
</mask>
<g mask="url(#mask0_2_2763)">
<path fill-rule="evenodd" clip-rule="evenodd" d="M17.9275 22.6631C14.0216 22.6631 12.0416 23.3341 12.0416 24.6587C12.0416 25.9952 14.0216 26.6726 17.9275 26.6726C21.8325 26.6726 23.8116 26.0016 23.8116 24.677C23.8116 23.3405 21.8325 22.6631 17.9275 22.6631ZM17.9275 28.0476C16.1317 28.0476 10.6666 28.0476 10.6666 24.6587C10.6666 21.6373 14.8108 21.2881 17.9275 21.2881C19.7232 21.2881 25.1866 21.2881 25.1866 24.677C25.1866 27.6983 21.0432 28.0476 17.9275 28.0476Z" fill="white"/>
</g>
<mask id="mask1_2_2763" style="mask-type:luminance" maskUnits="userSpaceOnUse" x="13" y="9" width="10" height="11">
<path fill-rule="evenodd" clip-rule="evenodd" d="M13.0591 9.83344H22.7941V19.5672H13.0591V9.83344Z" fill="white"/>
</mask>
<g mask="url(#mask1_2_2763)">
<path fill-rule="evenodd" clip-rule="evenodd" d="M17.9275 11.1421C15.9649 11.1421 14.3681 12.738 14.3681 14.7006C14.3617 16.6567 15.9466 18.2517 17.9009 18.2591L17.9275 18.9136V18.2591C19.8892 18.2591 21.4851 16.6622 21.4851 14.7006C21.4851 12.738 19.8892 11.1421 17.9275 11.1421ZM17.9275 19.5672H17.8982C15.2197 19.5589 13.0499 17.3745 13.0591 14.6978C13.0591 12.0166 15.2426 9.83307 17.9275 9.83307C20.6115 9.83307 22.7941 12.0166 22.7941 14.7006C22.7941 17.3846 20.6115 19.5672 17.9275 19.5672Z" fill="white"/>
</g>
</svg>
