<svg width="18" height="15" viewBox="0 0 18 15" fill="none" xmlns="http://www.w3.org/2000/svg">
<path fill-rule="evenodd" clip-rule="evenodd" d="M8.99922 5.07667C7.80222 5.07667 6.82931 6.05047 6.82931 7.24748C6.82931 8.44359 7.80222 9.4165 8.99922 9.4165C10.1962 9.4165 11.17 8.44359 11.17 7.24748C11.17 6.05047 10.1962 5.07667 8.99922 5.07667ZM8.9993 10.7666C7.05798 10.7666 5.47937 9.18799 5.47937 7.24757C5.47937 5.30626 7.05798 3.72675 8.9993 3.72675C10.9406 3.72675 12.5201 5.30626 12.5201 7.24757C12.5201 9.18799 10.9406 10.7666 8.9993 10.7666Z" fill="#001833"/>
<mask id="mask0_2_3091" style="mask-type:luminance" maskUnits="userSpaceOnUse" x="0" y="-1" width="18" height="16">
<path fill-rule="evenodd" clip-rule="evenodd" d="M0 -0.000244141H18V14.4944H0V-0.000244141Z" fill="white"/>
</mask>
<g mask="url(#mask0_2_3091)">
<path fill-rule="evenodd" clip-rule="evenodd" d="M1.41274 7.24673C3.08675 10.9449 5.90647 13.1436 8.99979 13.1445C12.0931 13.1436 14.9128 10.9449 16.5869 7.24673C14.9128 3.5495 12.0931 1.35079 8.99979 1.34989C5.90737 1.35079 3.08675 3.5495 1.41274 7.24673ZM9.00164 14.4947H8.99804H8.99714C5.27471 14.492 1.93209 11.8829 0.0546754 7.51332C-0.0182251 7.34322 -0.0182251 7.15062 0.0546754 6.98052C1.93209 2.61188 5.27561 0.00276467 8.99714 6.46535e-05C8.99894 -0.000835353 8.99894 -0.000835353 8.99984 6.46535e-05C9.00164 -0.000835353 9.00164 -0.000835353 9.00254 6.46535e-05C12.725 0.00276467 16.0676 2.61188 17.945 6.98052C18.0188 7.15062 18.0188 7.34322 17.945 7.51332C16.0685 11.8829 12.725 14.492 9.00254 14.4947H9.00164Z" fill="#001833"/>
</g>
</svg>
