<svg width="26" height="13" viewBox="0 0 26 13" fill="var(--black-color)" xmlns="http://www.w3.org/2000/svg">
<path d="M2.40285 9.03C2.50285 9.53 2.71785 9.91 3.04785 10.17C3.37785 10.43 3.82285 10.56 4.38285 10.56C5.09285 10.56 5.61285 10.28 5.94285 9.72C6.27285 9.16 6.43785 8.205 6.43785 6.855C6.19785 7.195 5.85785 7.46 5.41785 7.65C4.98785 7.83 4.51785 7.92 4.00785 7.92C3.35785 7.92 2.76785 7.79 2.23785 7.53C1.70785 7.26 1.28785 6.865 0.977851 6.345C0.677851 5.815 0.527851 5.175 0.527851 4.425C0.527851 3.325 0.847851 2.45 1.48785 1.8C2.13785 1.14 3.02785 0.809999 4.15785 0.809999C5.51785 0.809999 6.48285 1.265 7.05285 2.175C7.63285 3.075 7.92285 4.46 7.92285 6.33C7.92285 7.62 7.81285 8.675 7.59285 9.495C7.38285 10.315 7.01285 10.935 6.48285 11.355C5.95285 11.775 5.21785 11.985 4.27785 11.985C3.20785 11.985 2.38285 11.705 1.80285 11.145C1.22285 10.585 0.897851 9.88 0.827851 9.03H2.40285ZM4.30785 6.48C4.90785 6.48 5.37785 6.295 5.71785 5.925C6.06785 5.545 6.24285 5.045 6.24285 4.425C6.24285 3.735 6.05785 3.2 5.68785 2.82C5.32785 2.43 4.83285 2.235 4.20285 2.235C3.57285 2.235 3.07285 2.435 2.70285 2.835C2.34285 3.225 2.16285 3.74 2.16285 4.38C2.16285 4.99 2.33785 5.495 2.68785 5.895C3.04785 6.285 3.58785 6.48 4.30785 6.48ZM10.4093 12.105C10.0993 12.105 9.83934 12 9.62934 11.79C9.41934 11.58 9.31434 11.32 9.31434 11.01C9.31434 10.7 9.41934 10.44 9.62934 10.23C9.83934 10.02 10.0993 9.915 10.4093 9.915C10.7093 9.915 10.9643 10.02 11.1743 10.23C11.3843 10.44 11.4893 10.7 11.4893 11.01C11.4893 11.32 11.3843 11.58 11.1743 11.79C10.9643 12 10.7093 12.105 10.4093 12.105ZM10.4093 5.805C10.0993 5.805 9.83934 5.7 9.62934 5.49C9.41934 5.28 9.31434 5.02 9.31434 4.71C9.31434 4.4 9.41934 4.14 9.62934 3.93C9.83934 3.72 10.0993 3.615 10.4093 3.615C10.7093 3.615 10.9643 3.72 11.1743 3.93C11.3843 4.14 11.4893 4.4 11.4893 4.71C11.4893 5.02 11.3843 5.28 11.1743 5.49C10.9643 5.7 10.7093 5.805 10.4093 5.805ZM12.6611 9.72V8.43L17.7011 1.2H19.7711V8.235H21.1661V9.72H19.7711V12H18.0911V9.72H12.6611ZM18.1661 2.94L14.6261 8.235H18.1661V2.94ZM22.058 2.625V1.065H25.178V12H23.453V2.625H22.058Z" fill="var(--black-color)"/>
</svg>
