<svg width="13" height="18" viewBox="0 0 13 18" fill="none" xmlns="http://www.w3.org/2000/svg">
<path d="M2.30054 0H10.7005C11.8583 0 12.8005 0.807609 12.8005 1.8V16.2C12.8005 17.1924 11.8583 18 10.7005 18H2.30054C1.14275 18 0.200536 17.1924 0.200536 16.2V1.8C0.200536 0.807609 1.14275 0 2.30054 0ZM1.25054 16.2C1.25054 16.6971 1.72058 17.1 2.30054 17.1H10.7005C11.2805 17.1 11.7505 16.6971 11.7505 16.2V1.8C11.7505 1.30289 11.2805 0.9 10.7005 0.9H2.30054C1.72058 0.9 1.25054 1.30289 1.25054 1.8V16.2Z" fill="#001833"/>
</svg>
