<svg width="15" height="44" viewBox="0 0 15 44" fill="none" xmlns="http://www.w3.org/2000/svg">
<path d="M6.10986 29.093C6.4668 29.093 6.74902 28.9353 6.94824 28.6282L14.7925 16.2766C14.9419 16.0359 15 15.8533 15 15.6624C15 15.2058 14.7012 14.907 14.2446 14.907C13.9126 14.907 13.73 15.0149 13.5308 15.3303L6.07666 27.2087L2.2085 22.1453C2.00098 21.8547 1.79346 21.7385 1.49463 21.7385C1.02148 21.7385 0.697754 22.0623 0.697754 22.5188C0.697754 22.7097 0.780762 22.9255 0.938477 23.1248L5.24658 28.6116C5.49561 28.9353 5.75293 29.093 6.10986 29.093Z" fill="#007AFF"/>
</svg>
